<svg viewBox="0 0 432 432" xmlns="http://www.w3.org/2000/svg">
	<rect x="0.1" y="-0.2" fill="#af96d4" width="432" height="432"/>
	<path fill="#fcc12d" d="M216.1-0.2c119.3,0,216,96.7,216,216s-96.7,216-216,216s-216-96.7-216-216S96.8-0.2,216.1-0.2z"/>
	<g>
		<path d="M321.1 135.4h-77a57 57 0 0 1-28.4 6.8 57 57 0 0 1-28.4-6.8H112c-3.3 0-5.1 1.8-5.1 4v16.3l109.1 6.8 109.2-6.8v-16.2a4 4 0 0 0-4-4z" fill="#997d55"/>
		<path d="M120.2 151.6l-.8-40c.1-18.8 12.2-34.4 30.4-35.9s32.3 11.9 35.8 30.4l7 48a2543 2543 0 0 0-72.4-2.5z" fill="#ddd58c"/>
		<path d="M142.4 151.6a35 35 0 0 1 42.6-22.5 34.8 34.8 0 0 1 50.7 0 34.8 34.8 0 0 1 42.6 22.5v8.4H142.4v-8.4z" fill="#74a34b"/>
		<path d="M229 157.2a33.9 33.9 0 0 1 24.8-18.6V93.2a4.6 4.6 0 0 1 0-8.8v-5.7c0-4.5 3.7-8.2 8.2-8.2h15.4c4.5 0 8.2 3.7 8.3 8.2v5.7a4.6 4.6 0 0 1 0 8.8v45.4a33.8 33.8 0 0 1 21.3 13s-72 4.4-78 5.6z" fill="#84433a"/>
		<path d="M115 261.2h202l8.2 72c0 9.3-7.6 17.3-17 17.3H123.8c-9.4 0-17-8-17-17.3l8.1-72z" fill="#ddcdab"/>
		<path d="M321.1 151.6h-76.7a57 57 0 0 1-28.4 6.8 57 57 0 0 1-28.4-6.8H111a4 4 0 0 0-4 4.1l8 105.5h202.2l8.1-105.5a4 4 0 0 0-4-4z" fill="#d1bfa1"/>
		<path d="M152.3 261.2c1.2 15.1 7.8 29.4 18.5 40.1L159.1 313a80.4 80.4 0 0 1-23.4-51.8h16.6zm143.9 0a80.4 80.4 0 0 1-23.3 51.7l-11.6-11.7a63.9 63.9 0 0 0 18.4-40h16.5zm-111.9 0a32 32 0 0 0 9 17.7L182 290.2a48.1 48.1 0 0 1-13.8-29h16.1zm79.6 0c-1.2 10.9-6 21-13.8 28.9l-11.3-11.4a32 32 0 0 0 8.9-17.5h16.2zm-33 0a15.7 15.7 0 0 1-29.7 0h29.6z" fill="#fff"/>
		<path d="M205 245.1a15.7 15.7 0 0 1 25.8 16.1h-29.6c-2-5.6-.5-11.9 3.7-16.1zm-45.8-45.8a80.4 80.4 0 0 1 137 62h-16.6a64 64 0 0 0-63.6-69 64.2 64.2 0 0 0-63.6 69h-16.6c-1.5-23.1 7-45.7 23.4-62zm22.8 22.9a48 48 0 0 0-13.8 39h16.2a32.1 32.1 0 0 1 31.6-37 32.2 32.2 0 0 1 31.6 37h16.2a48.1 48.1 0 0 0-81.8-39z" fill="#e5e5e5"/>
		<path d="M110.9 155.7h76.7a57 57 0 0 0 28.4 6.8 57 57 0 0 0 28.4-6.8H321a4 4 0 0 1 4 2.9l.1-3a4 4 0 0 0-4-4h-76.8a57 57 0 0 1-28.4 6.8 57 57 0 0 1-28.4-6.8H111a4 4 0 0 0-4 4v3a4 4 0 0 1 4-3z" fill-opacity=".25" fill="#fff"/>
		<path d="M308.2 346.4H123.8c-8.6 0-15.6-6.6-16.8-14.9l-.2 1.7c0 9.3 7.6 17.3 17 17.3h184.4c9.4 0 17-8 17-17.3l-.2-1.7c-1.2 8.3-8.2 15-16.8 15z" fill="#997d55" fill-opacity=".5"/>
		<path d="M321.1 143.5h-22.8c1.8 1.3 3.5 2.6 5.1 4.1h-59a46 46 0 0 1-12.6 5c5.2-7.4 13-12.5 22-14v-9.8l-4-.7v10.5c-10.4 1.8-19.1 6.2-24 15a69 69 0 0 1-9.8.8 57 57 0 0 1-28.3-6.8H144a35 35 0 0 1 41-18.5c1-1.2 2.2-2.3 3.5-3.3l-.6-4c-3 1.7-4.7 2.7-7 5.2-3-.8-6.3-1.3-9.5-1.3-18.1 0-27.3 12.8-33.2 21.9h-18.1v-4h-9.2a4 4 0 0 1-4-4.1v16a4 4 0 0 1 4-3.9h76.7a57 57 0 0 0 28.4 6.8 57 57 0 0 0 28.4-6.8H321a4 4 0 0 1 4.1 4.1v-16.2a4 4 0 0 1-4 4zm-214.3 12z" fill-opacity=".15"/>
	</g>
</svg>
