<?xml version="1.0" encoding="UTF-8" standalone="no"?>
<svg width="224px" height="332px" viewBox="0 0 224 332" version="1.1" xmlns="http://www.w3.org/2000/svg" xmlns:xlink="http://www.w3.org/1999/xlink" xmlns:sketch="http://www.bohemiancoding.com/sketch/ns">
    <title>indipendent_policies</title>
    <description>Created with Sketch (http://www.bohemiancoding.com/sketch)</description>
    <defs></defs>
    <g id="Page-1" stroke="none" stroke-width="1" fill="none" fill-rule="evenodd" sketch:type="MSPage">
        <rect id="Rectangle-1" stroke="#979797" fill="#D8D8D8" sketch:type="MSShapeGroup" x="76" y="0" width="61" height="70"></rect>
        <path d="M172.511479,67.0155969 C164.103124,56.0616044 150.876225,49 136,49 C134.026455,49 132.081937,49.1242831 130.173847,49.3654496 C125.133715,43.6241577 117.740091,40 109.5,40 C99.0768763,40 90.0081378,45.798809 85.3439092,54.3463023 L85.3439092,54.3463023 C81.0620598,51.5955027 75.9673548,50 70.5,50 C55.3121686,50 43,62.3121686 43,77.5 C43,77.7906068 43.0045077,78.0801608 43.013457,78.3685959 C41.5449525,78.1261267 40.0372055,78 38.5,78 C23.3121686,78 11,90.3121686 11,105.5 C11,120.687831 23.3121686,133 38.5,133 C42.5211513,133 46.3407227,132.136934 49.7835783,130.585939 L49.7835783,130.585939 C54.8246004,136.355378 62.2366764,140 70.5,140 C75.4060921,140 80.0121174,138.715262 84,136.463864 C87.9878826,138.715262 92.5939079,140 97.5,140 C103.3778,140 108.824898,138.15595 113.29432,135.014827 L113.29432,135.014827 C119.993375,138.824274 127.742603,141 136,141 C142.927333,141 149.497021,139.468736 155.389046,136.726224 C160.198026,139.454846 165.68076,141 171.5,141 C190.553825,141 206,124.434537 206,104 C206,83.9282982 191.097479,67.5894915 172.511479,67.0155969 Z" id="Oval-1" stroke="#979797" fill="#D8D8D8" sketch:type="MSShapeGroup"></path>
        <rect id="Rectangle-1" stroke="#979797" fill="#D8D8D8" sketch:type="MSShapeGroup" x="8" y="234" width="61" height="97"></rect>
        <rect id="Rectangle-1" stroke="#979797" fill="#D8D8D8" sketch:type="MSShapeGroup" x="156" y="235" width="61" height="97"></rect>
        <rect id="Rectangle-4" stroke="#979797" fill="#7ED321" sketch:type="MSShapeGroup" x="0" y="171" width="76" height="51" rx="8"></rect>
        <rect id="Rectangle-4" stroke="#979797" fill="#4990E2" sketch:type="MSShapeGroup" x="148" y="172" width="76" height="51" rx="8"></rect>
        <text id="Policy" sketch:type="MSTextLayer" font-family="Helvetica" font-size="12" font-weight="normal" fill="#000000">
            <tspan x="22" y="200">Policy</tspan>
        </text>
        <text id="Policy" sketch:type="MSTextLayer" font-family="Helvetica" font-size="12" font-weight="normal" fill="#000000">
            <tspan x="170" y="201">Policy</tspan>
        </text>
        <text id="HTML" sketch:type="MSTextLayer" font-family="Helvetica" font-size="12" font-weight="normal" fill="#000000">
            <tspan x="22" y="282">HTML</tspan>
        </text>
        <text id="Manifest" sketch:type="MSTextLayer" font-family="Helvetica" font-size="12" font-weight="normal" fill="#000000">
            <tspan x="163" y="280">Manifest</tspan>
        </text>
        <text id="example.com" sketch:type="MSTextLayer" font-family="Helvetica" font-size="12" font-weight="normal" fill="#000000">
            <tspan x="76" y="99">example.com</tspan>
        </text>
        <path d="M78.5,112.5 L34.5,180.5" id="Line" stroke="#979797" stroke-linecap="round" stroke-linejoin="round" sketch:type="MSShapeGroup"></path>
        <path id="Line-decoration-1" d="M35.0398982,179.665612 C37.9749368,177.06245 40.4906841,174.831169 43.4257226,172.228008 C41.6626252,171.08718 40.1513988,170.109328 38.3883014,168.968501 C37.2163603,172.71249 36.2118393,175.921623 35.0398982,179.665612 C35.0398982,179.665612 35.0398982,179.665612 35.0398982,179.665612 Z" stroke="#979797" stroke-linecap="round" stroke-linejoin="round"></path>
        <path d="M131.5,112.5 L188.5,185.5" id="Line" stroke="#979797" stroke-linecap="square" sketch:type="MSShapeGroup"></path>
        <path id="Line-decoration-1" d="M188.119974,185.0133 C186.621229,181.387743 185.33659,178.280122 183.837845,174.654565 C182.18265,175.946978 180.763912,177.05476 179.108717,178.347172 C182.262657,180.680317 184.966034,182.680155 188.119974,185.0133 C188.119974,185.0133 188.119974,185.0133 188.119974,185.0133 Z" stroke="#979797" stroke-linecap="square"></path>
        <path d="M36.5,213.5 L36.5,262.75444" id="Line" stroke="#979797" stroke-linecap="square" sketch:type="MSShapeGroup"></path>
        <path id="Line-decoration-1" d="M36.5,262.5 C37.55,258.72 38.45,255.48 39.5,251.7 C37.4,251.7 35.6,251.7 33.5,251.7 C34.55,255.48 35.45,258.72 36.5,262.5 C36.5,262.5 36.5,262.5 36.5,262.5 Z" stroke="#979797" stroke-linecap="square"></path>
        <path d="M187.5,211.5 L187.5,259.759712" id="Line" stroke="#979797" stroke-linecap="square" sketch:type="MSShapeGroup"></path>
        <path id="Line-decoration-1" d="M187.5,259.5 C188.55,255.72 189.45,252.48 190.5,248.7 C188.4,248.7 186.6,248.7 184.5,248.7 C185.55,252.48 186.45,255.72 187.5,259.5 C187.5,259.5 187.5,259.5 187.5,259.5 Z" stroke="#979797" stroke-linecap="square"></path>
    </g>
</svg>