<svg viewBox="0 0 432 432" xmlns="http://www.w3.org/2000/svg" xmlns:xlink="http://www.w3.org/1999/xlink">
	<pattern y="432" width="10.7" height="10.7" patternUnits="userSpaceOnUse" id="SVGID_1_" viewBox="0 -10.7 10.7 10.7" style="overflow:visible;">
		<rect y="-10.7" fill="none" width="10.7" height="10.7"/>
		<rect y="-10.7" fill="none" width="10.7" height="10.7"/>
		<rect y="-5.4" fill="#ccc" width="5.4" height="5.4"/>
		<rect x="5.4" y="-10.7" fill="#ccc" width="5.4" height="5.4"/>
	</pattern>
	<pattern id="SVGID_2_" xlink:href="#SVGID_1_" patternTransform="matrix(1 0 0 -1 -450.7171 -15903.707)">
	</pattern>
	<defs>
		<linearGradient id="SVGID_3_" x1="0%" y1="0%" x2="0%" y2="100%">
			<stop offset="0%" style="stop-color:#888888;stop-opacity:1" />
      <stop offset="100%" style="stop-color:#212121;stop-opacity:1" />
		</linearGradient>
	</defs>
	<rect y="-0.2" fill="url(#SVGID_2_)" width="432" height="432"/>
	<path d="M354.6 421H77.3a26 26 0 01-25.5-26L64 286.7h.1l-12-158.6v-.1a6 6 0 016-6h115.2a85.7 85.7 0 0042.7 10.2c14.9.3 29.6-3.2 42.7-10.3H374l.3.2a6 6 0 016 6l-12.2 158.6h-.3L380.2 395a26 26 0 01-25.6 26zm-18-134.1l.2-7.6c0-66.3-54.6-121-120.9-121A121 121 0 0095.4 286.8h-.2a121 121 0 0035.2 78L148 347c-16-16-26-37.5-27.8-60.1h.1A97 97 0 01216 183.2a96.7 96.7 0 0195.7 103.7h.1a96.1 96.1 0 01-27.6 60l17.4 17.6a121 121 0 0035-77.6zm-48.8-.2A72.5 72.5 0 00216 207a72.3 72.3 0 00-51 123.3l17-17a48.1 48.1 0 01-13.6-26.6h.2a48.2 48.2 0 0147.5-55.6 48.6 48.6 0 0147.5 55.6h.1a48.1 48.1 0 01-13.3 26.3l17 17.2a73 73 0 0020.7-43.5h-.2zm-49.6 0a23.6 23.6 0 00-38.8-24.2h-.1a23.7 23.7 0 1039 24.2zM107.8 116c10.9-22.5 36.9-34.7 61.6-27.8a52.3 52.3 0 0176.2 0c8.7-2.5 21.2-1.5 21.2-1.5v15.8c-15.6 2.7-28.7 9.3-36 22.5-5 .8-9.9 1.2-14.8 1.3a85.7 85.7 0 01-42.6-10.3h-65.6zm165-28.2V34a7 7 0 010-13.2v-8.6c0-6.7 5.6-12.3 12.3-12.3h23.2c6.8 0 12.3 5.6 12.5 12.3V21a7 7 0 010 13.2v68.3a50.8 50.8 0 0126.6 13.5h-88.7c-6 3.5-12.3 6-19 7.5a51.4 51.4 0 0133.1-21V87.7zM99 115.9H71.8v-6h-.1l-1-48.1c.2-28.3 18.4-51.7 45.7-54 27.4-2.2 48.6 18 53.9 45.7l3.4 23.6c-4.5 2.6-7 4.1-10.5 7.9-4.5-1.3-9.5-2-14.3-2-27.2 0-41 19.2-49.9 33z" fill="url(#SVGID_3_)"/>
</svg>
