<svg viewBox="0 0 432 432" xmlns="http://www.w3.org/2000/svg" xmlns:xlink="http://www.w3.org/1999/xlink">
	<rect x="0" y="0" fill="#f5f5f5" width="432" height="432"/>
	<rect y="-0.2" fill="url(#SVGID_2_)" width="432" height="432"/>
	<path d="M285.2 315.5H146.9c-7 0-12.8-6-12.8-13l6-54h.2l-6-79.1a3 3 0 013-3h57.4a42.8 42.8 0 0021.3 5c7.4.2 14.8-1.6 21.3-5H295a3 3 0 013 3l-6 79.1h-.2l6.1 54c0 7-5.7 13-12.7 13zm-9-66.9a60.1 60.1 0 00-60.2-64 60.3 60.3 0 00-60.1 64h-.1c1 14.6 7.2 28.4 17.5 38.8l8.8-8.8a48 48 0 01-13.9-30h.1a48 48 0 1195.4 0 48 48 0 01-13.7 30l8.7 8.7a60.3 60.3 0 0017.5-38.7zm-24.3 0a36.2 36.2 0 00-36-39.8 36 36 0 00-25.4 61.5l8.5-8.5a24 24 0 01-6.8-13.3h.1a24 24 0 0123.7-27.7 24.3 24.3 0 0123.7 27.7 24 24 0 01-6.6 13.2l8.5 8.5c5.8-6 9.4-13.5 10.3-21.7zm-24.8 0a11.8 11.8 0 00-19.3-12.1h-.1a11.8 11.8 0 1019.5 12zm-65-85.3a26.4 26.4 0 0130.7-13.9 26.1 26.1 0 0138 0c4.3-1.2 10.6-.7 10.6-.7v7.9c-7.8 1.3-14.4 4.6-18 11.2a42.8 42.8 0 01-28.6-4.5H162zm82.3-14v-26.8a3.5 3.5 0 010-6.6v-4.3c0-3.3 2.7-6.1 6.1-6.1h11.6c3.3 0 6.1 2.8 6.2 6.1v4.3a3.5 3.5 0 010 6.6v34a25.4 25.4 0 0113.3 6.8h-44.3c-3 1.7-6.1 3-9.4 3.8a25.6 25.6 0 0116.5-10.5v-7.4zm-86.7 14H144v-3l-.5-24c0-14 9.1-25.8 22.8-26.9 13.6-1.1 24.2 9 26.8 22.8L195 144a18 18 0 00-5.2 3.9c-2.3-.6-4.7-1-7.1-1-13.6 0-20.5 9.6-25 16.4z" fill="#fcc12d"/>
</svg>
