<?xml version="1.0" standalone="yes"?>

<svg version="1.1" viewBox="0.0 0.0 340.0 340.0" fill="none" stroke="none" stroke-linecap="square" stroke-miterlimit="10" xmlns="http://www.w3.org/2000/svg" xmlns:xlink="http://www.w3.org/1999/xlink"><clipPath id="p.0"><path d="m0 0l960.0 0l0 720.0l-960.0 0l0 -720.0z" clip-rule="nonzero"></path></clipPath><g clip-path="url(#p.0)"><path fill="#000000" fill-opacity="0.0" d="m0 0l960.0 0l0 720.0l-960.0 0z" fill-rule="evenodd"></path><path fill="#fff2cc" d="m23.608923 59.75328l234.58267 0l0 235.33858l-234.58267 0z" fill-rule="evenodd"></path><path stroke="#000000" stroke-width="1.0" stroke-linejoin="round" stroke-linecap="butt" d="m23.608923 59.75328l234.58267 0l0 235.33858l-234.58267 0z" fill-rule="evenodd"></path><path fill="#000000" fill-opacity="0.0" d="m23.606298 36.88714l233.85828 0.724411" fill-rule="evenodd"></path><path stroke="#000000" stroke-width="1.0" stroke-linejoin="round" stroke-linecap="butt" d="m27.03337 36.897755l227.00414 0.7031784" fill-rule="evenodd"></path><path fill="#000000" stroke="#000000" stroke-width="1.0" stroke-linecap="butt" d="m27.03337 36.897755l1.1280613 -1.1210938l-3.093235 1.1150055l3.0862694 1.1341515z" fill-rule="evenodd"></path><path fill="#000000" stroke="#000000" stroke-width="1.0" stroke-linecap="butt" d="m254.03749 37.600933l-1.1280518 1.1210938l3.0932465 -1.1150055l-3.0862885 -1.1341515z" fill-rule="evenodd"></path><path fill="#000000" fill-opacity="0.0" d="m23.616798 8.115485l234.58267 0l0 32.47244l-234.58267 0z" fill-rule="evenodd"></path><path fill="#000000" d="m106.76625 31.195486l-2.015625 0l0 -7.578125q-1.09375 1.03125 -2.59375 1.53125l0 -1.828125q0.796875 -0.265625 1.71875 -0.984375q0.921875 -0.71875 1.265625 -1.671875l1.625 0l0 10.53125zm6.401108 -10.53125q1.53125 0 2.390625 1.078125q1.015625 1.296875 1.015625 4.28125q0 2.96875 -1.03125 4.28125q-0.84375 1.0625 -2.375 1.0625q-1.53125 0 -2.46875 -1.171875q-0.9375 -1.171875 -0.9375 -4.203125q0 -2.953125 1.03125 -4.25q0.859375 -1.078125 2.375 -1.078125zm0 1.671875q-0.359375 0 -0.65625 0.234375q-0.28125 0.21875 -0.4375 0.828125q-0.203125 0.78125 -0.203125 2.625q0 1.84375 0.1875 2.53125q0.1875 0.6875 0.46875 0.921875q0.28125 0.234375 0.640625 0.234375q0.375 0 0.65625 -0.234375q0.28125 -0.234375 0.4375 -0.84375q0.21875 -0.765625 0.21875 -2.609375q0 -1.84375 -0.1875 -2.53125q-0.1875 -0.703125 -0.46875 -0.921875q-0.28125 -0.234375 -0.65625 -0.234375zm8.151108 -1.671875q1.53125 0 2.390625 1.078125q1.015625 1.296875 1.015625 4.28125q0 2.96875 -1.03125 4.28125q-0.84375 1.0625 -2.375 1.0625q-1.53125 0 -2.46875 -1.171875q-0.9375 -1.171875 -0.9375 -4.203125q0 -2.953125 1.03125 -4.25q0.859375 -1.078125 2.375 -1.078125zm0 1.671875q-0.359375 0 -0.65625 0.234375q-0.28125 0.21875 -0.4375 0.828125q-0.203125 0.78125 -0.203125 2.625q0 1.84375 0.1875 2.53125q0.1875 0.6875 0.46875 0.921875q0.28125 0.234375 0.640625 0.234375q0.375 0 0.65625 -0.234375q0.28125 -0.234375 0.4375 -0.84375q0.21875 -0.765625 0.21875 -2.609375q0 -1.84375 -0.1875 -2.53125q-0.1875 -0.703125 -0.46875 -0.921875q-0.28125 -0.234375 -0.65625 -0.234375zm4.776108 0.953125q0 -1.40625 0.609375 -2.078125q0.625 -0.6875 1.6875 -0.6875q1.09375 0 1.703125 0.6875q0.625 0.671875 0.625 2.078125q0 1.421875 -0.625 2.109375q-0.609375 0.671875 -1.671875 0.671875q-1.09375 0 -1.71875 -0.671875q-0.609375 -0.6875 -0.609375 -2.109375zm1.5625 -0.015625q0 1.03125 0.234375 1.375q0.1875 0.265625 0.5 0.265625q0.3125 0 0.5 -0.265625q0.234375 -0.34375 0.234375 -1.375q0 -1.015625 -0.234375 -1.359375q-0.1875 -0.265625 -0.5 -0.265625q-0.3125 0 -0.5 0.265625q-0.234375 0.34375 -0.234375 1.359375zm2.265625 8.328125l-1.484375 0l5.578125 -11.078125l1.453125 0l-5.546875 11.078125zm3.25 -2.765625q0 -1.40625 0.609375 -2.078125q0.625 -0.6875 1.703125 -0.6875q1.078125 0 1.6875 0.6875q0.625 0.671875 0.625 2.078125q0 1.421875 -0.625 2.109375q-0.609375 0.671875 -1.671875 0.671875q-1.09375 0 -1.71875 -0.671875q-0.609375 -0.6875 -0.609375 -2.109375zm1.5625 0q0 1.015625 0.234375 1.359375q0.1875 0.265625 0.5 0.265625q0.3125 0 0.484375 -0.25q0.234375 -0.359375 0.234375 -1.375q0 -1.03125 -0.21875 -1.375q-0.1875 -0.265625 -0.5 -0.265625q-0.328125 0 -0.5 0.265625q-0.234375 0.34375 -0.234375 1.375zm10.291229 2.359375l-2.40625 -7.59375l1.953125 0l1.421875 4.96875l1.3125 -4.96875l1.9375 0l1.265625 4.96875l1.453125 -4.96875l1.984375 0l-2.4375 7.59375l-1.9375 0l-1.3125 -4.890625l-1.28125 4.890625l-1.953125 0zm9.97821 -8.625l0 -1.859375l2.015625 0l0 1.859375l-2.015625 0zm0 8.625l0 -7.59375l2.015625 0l0 7.59375l-2.015625 0zm11.040741 0l-1.859375 0l0 -1.109375q-0.46875 0.640625 -1.109375 0.96875q-0.625 0.3125 -1.265625 0.3125q-1.3125 0 -2.25 -1.046875q-0.9375 -1.0625 -0.9375 -2.953125q0 -1.9375 0.90625 -2.9375q0.921875 -1.0 2.3125 -1.0q1.265625 0 2.203125 1.046875l0 -3.765625l2.0 0l0 10.484375zm-5.359375 -3.96875q0 1.21875 0.328125 1.765625q0.5 0.78125 1.359375 0.78125q0.703125 0 1.1875 -0.578125q0.484375 -0.59375 0.484375 -1.765625q0 -1.3125 -0.46875 -1.890625q-0.46875 -0.578125 -1.203125 -0.578125q-0.71875 0 -1.203125 0.578125q-0.484375 0.5625 -0.484375 1.6875zm10.827606 -3.625l0 1.59375l-1.375 0l0 3.0625q0 0.9375 0.03125 1.09375q0.046875 0.140625 0.1875 0.25q0.140625 0.09375 0.34375 0.09375q0.28125 0 0.8125 -0.1875l0.171875 1.5625q-0.703125 0.296875 -1.59375 0.296875q-0.546875 0 -0.984375 -0.171875q-0.421875 -0.1875 -0.640625 -0.46875q-0.203125 -0.296875 -0.28125 -0.796875q-0.0625 -0.359375 -0.0625 -1.421875l0 -3.3125l-0.921875 0l0 -1.59375l0.921875 0l0 -1.515625l2.015625 -1.171875l0 2.6875l1.375 0zm3.4118958 -2.890625l0 3.84375q0.96875 -1.125 2.3125 -1.125q0.703125 0 1.25 0.265625q0.5625 0.25 0.84375 0.65625q0.28125 0.390625 0.390625 0.875q0.109375 0.484375 0.109375 1.515625l0 4.453125l-2.015625 0l0 -4.015625q0 -1.1875 -0.125 -1.515625q-0.109375 -0.328125 -0.40625 -0.515625q-0.28125 -0.1875 -0.71875 -0.1875q-0.5 0 -0.890625 0.25q-0.390625 0.234375 -0.578125 0.734375q-0.171875 0.484375 -0.171875 1.4375l0 3.8125l-2.015625 0l0 -10.484375l2.015625 0z" fill-rule="nonzero"></path><path fill="#b6d7a8" d="m47.212597 178.5328l0 0c0 -53.37593 42.44482 -96.64567 94.80315 -96.64567l0 0c25.143356 0 49.256912 10.1822815 67.03595 28.306862c17.779037 18.124573 27.767197 42.706787 27.767197 68.338806l0 0c0 53.37593 -42.44481 96.64566 -94.80315 96.64566l0 0c-52.35833 0 -94.80315 -43.26973 -94.80315 -96.64566z" fill-rule="evenodd"></path><path stroke="#000000" stroke-width="1.0" stroke-linejoin="round" stroke-linecap="butt" d="m47.212597 178.5328l0 0c0 -53.37593 42.44482 -96.64567 94.80315 -96.64567l0 0c25.143356 0 49.256912 10.1822815 67.03595 28.306862c17.779037 18.124573 27.767197 42.706787 27.767197 68.338806l0 0c0 53.37593 -42.44481 96.64566 -94.80315 96.64566l0 0c-52.35833 0 -94.80315 -43.26973 -94.80315 -96.64566z" fill-rule="evenodd"></path><path fill="#000000" fill-opacity="0.0" d="m74.9798 246.87161l134.07874 -136.6929" fill-rule="evenodd"></path><path stroke="#000000" stroke-width="1.0" stroke-linejoin="round" stroke-linecap="butt" d="m77.3796 244.42502l129.27914 -131.79971" fill-rule="evenodd"></path><path fill="#000000" stroke="#000000" stroke-width="1.0" stroke-linecap="butt" d="m77.37961 244.42502l-0.015357971 -1.590332l-1.3607635 2.9932709l2.966446 -1.4182892z" fill-rule="evenodd"></path><path fill="#000000" stroke="#000000" stroke-width="1.0" stroke-linecap="butt" d="m206.65874 112.6253l0.015350342 1.590332l1.3607635 -2.9932709l-2.966446 1.4182968z" fill-rule="evenodd"></path><path fill="#000000" fill-opacity="0.0" d="m50.532818 223.15636l135.02362 -135.02362l46.11023 46.110237l-135.02362 135.02364z" fill-rule="evenodd"></path><path fill="#000000" d="m85.2591 226.61118l-1.3368683 0.3867035l-5.3033066 -13.700195l1.2484894 -0.51927185l5.3916855 13.832764zm-0.751297 -4.0879517l-2.7179413 -3.1156921l2.8947144 -2.8947144l1.1821976 1.18219l-1.7567215 1.7567139l0.23201752 0.45298767q-0.06629181 -0.13256836 0.3867035 -0.5855713q0.6850052 -0.68499756 1.4805069 -0.70710754q0.894928 0.011047363 1.7456665 0.8617859q1.0164642 1.0164795 1.0054169 2.1102753q0.011047363 0.894928 -0.74024963 1.6462402q-0.6850128 0.6850128 -1.4915543 0.6960602q-0.87283325 -0.011047363 -2.1434174 -1.1048584l1.2926788 -1.2926788q0.7292023 0.6187134 1.0054169 0.607666q0.055244446 0.011047363 0.20992279 -0.14363098q0.14363098 -0.14363098 0.13258362 -0.3093567q0.011047363 -0.34249878 -0.46404266 -0.81759644q-0.5192795 -0.51927185 -0.77339935 -0.5082245q-0.14363098 -0.011047363 -0.29830933 0.14363098q-0.2651596 0.26515198 -0.0994339 0.93911743l-1.082756 1.0827637zm-7.80027 -7.1594543l2.9941483 2.994156l0.47509003 -0.47509766l1.1821976 1.1822052l-0.47509003 0.4750824l1.049614 1.0496063l-1.2926788 1.2926788l-1.049614 -1.0496063l-1.7788162 1.7788086l-0.98332214 -0.9833069l-1.2926788 -5.093384l1.1711502 -1.1711426zm1.4142075 4.5740967l0.28726196 -0.28726196l-0.49718475 -0.49719238l0.20992279 0.78445435z" fill-rule="nonzero"></path><path fill="#000000" d="m91.20026 213.17912l-1.811966 -1.811966l1.800911 -1.8009033l1.811966 1.8119507l-1.800911 1.8009186z" fill-rule="nonzero"></path><path fill="#000000" d="m102.407265 209.35254l-5.8667755 -5.8667755l0.8838806 -0.8838806l0.8175888 0.8175812q-0.15467834 -0.70710754 0.044197083 -1.4142151q0.19887543 -0.7292023 0.7844467 -1.3147736q0.6518631 -0.65185547 1.3479233 -0.79548645q0.6850128 -0.15467834 1.3368759 0.16572571q-0.33145905 -1.7235718 0.7844467 -2.8394775q0.87283325 -0.87283325 1.8230057 -0.8507385q0.9501724 0 1.9555969 1.0054169l4.032715 4.032715l-0.98332214 0.98332214l-3.7012634 -3.7012634q-0.59661865 -0.59661865 -0.9501724 -0.751297q-0.36460114 -0.16572571 -0.77339935 -0.06629944q-0.41984558 0.088394165 -0.76234436 0.43089294q-0.618721 0.61872864 -0.618721 1.4363251q0 0.8175812 0.905983 1.7235718l3.4139938 3.4140015l-0.9943619 0.99435425l-3.8117523 -3.811737q-0.66291046 -0.6629181 -1.2374344 -0.751297q-0.5745239 -0.088394165 -1.1269531 0.46403503q-0.41984558 0.41984558 -0.5524292 0.9943695q-0.13258362 0.5745239 0.13258362 1.1711426q0.26516724 0.5745239 1.0606613 1.3700256l3.0494003 3.0493927l-0.9943695 0.9943695zm2.4638214 -16.384995l-1.1380005 -1.1380005l0.9943695 -0.9943695l1.1380005 1.1380005l-0.9943695 0.9943695zm6.9605865 6.9605865l-5.8667755 -5.8667755l0.9943695 -0.9943695l5.8667755 5.8667755l-0.9943695 0.9943695zm2.5135422 -2.5135498l-5.8667755 -5.8667755l0.894928 -0.894928l0.8286438 0.8286438q-0.32041168 -1.6020355 0.905983 -2.8284302q0.53032684 -0.5303345 1.1600952 -0.78445435q0.6297684 -0.2541046 1.1600952 -0.16572571q0.5303345 0.088394165 1.049614 0.43089294q0.33145142 0.22097778 1.0164642 0.9059906l3.612877 3.6128693l-0.9943695 0.9943695l-3.5686798 -3.5686798q-0.60767365 -0.607666 -1.0275192 -0.78445435q-0.41984558 -0.1988678 -0.894928 -0.07733154q-0.46404266 0.11048889 -0.8617859 0.5082245q-0.64081573 0.64082336 -0.6960602 1.5136566q-0.055244446 0.8507385 1.0717087 1.9776917l3.2040787 3.204071l-0.9943695 0.9943695z" fill-rule="nonzero"></path><path fill="#000000" d="m125.664444 190.86832l-1.0717087 1.0717163q-2.121315 -0.4419403 -3.933281 -1.3700256q-1.8230057 -0.93911743 -3.1156845 -2.2317963q-1.5909958 -1.5909882 -2.4748764 -3.5576324q-0.762352 -1.7125244 -1.082756 -3.4913483l1.0606613 -1.0606537q0.9280777 2.4306793 1.8119583 3.8890839q0.8838806 1.4584045 2.1986618 2.7731934q0.905983 0.90597534 2.021881 1.6904144q1.1269531 0.773407 2.276001 1.3479309q0.762352 0.3645935 2.309143 0.93911743z" fill-rule="nonzero"></path><path fill="#000000" d="m125.48767 186.27213l-7.6676865 -4.065857l1.0275116 -1.0275116l4.319977 2.4417267l1.6020432 0.9170227q-0.06629181 -0.11048889 -0.8949356 -1.5136414l-2.5080185 -4.3641815l1.0275192 -1.0275116l4.2757797 2.5301208l1.4142151 0.8175812l-0.7954941 -1.4584045l-2.3864822 -4.3973236l0.97226715 -0.9722748l4.0327225 7.700836l-1.038559 1.0385742l-4.4415207 -2.5853577l-1.2374344 -0.773407l3.3366547 5.70105l-1.038559 1.038559zm0.12705994 -14.048218l-1.1380005 -1.1380005l0.9943695 -0.9943695l1.1380005 1.1380005l-0.9943695 0.9943695zm6.9605865 6.9605865l-5.866783 -5.8667755l0.9943695 -0.9943695l5.866783 5.8667755l-0.9943695 0.9943695zm6.3142395 -6.3142548l-0.74024963 -0.74024963q0.32040405 1.4252625 -0.7623596 2.5080261q-0.70710754 0.70710754 -1.6793671 0.90597534q-0.9722748 0.19888306 -1.9997864 -0.16572571q-1.0164795 -0.37565613 -1.9114075 -1.2705841q-0.8838806 -0.8838806 -1.3037262 -1.8782501q-0.41984558 -1.0164642 -0.20991516 -1.9776917q0.1988678 -0.9722748 0.92807007 -1.701477q0.5303345 -0.5303345 1.1600952 -0.7181549q0.64082336 -0.1988678 1.2595367 -0.088378906l-2.9057617 -2.905777l0.9943695 -0.9943695l8.098572 8.098587l-0.92807007 0.92807007zm-6.0656586 0.20993042q1.1269531 1.1269531 2.165512 1.215332q1.0275269 0.0773468 1.668335 -0.56347656q0.6518707 -0.65185547 0.5745239 -1.6351776q-0.07733154 -1.0054169 -1.1711426 -2.099228q-1.2042847 -1.2042847 -2.2318115 -1.3037262q-1.0275116 -0.09942627 -1.7125244 0.5855713q-0.66290283 0.6629181 -0.56347656 1.6462402q0.09944153 0.98332214 1.2705841 2.1544647zm9.8276825 -5.7618103l1.0275116 0.74024963q-0.33145142 0.5082245 -0.66290283 0.83969116q-0.54138184 0.5413666 -1.0054169 0.6739502q-0.47509766 0.121536255 -0.87283325 -0.03314209q-0.40879822 -0.16572571 -1.3037415 -1.0606537l-3.3697968 -3.369812l-0.7292023 0.7292023l-0.773407 -0.7733917l0.7292023 -0.7292023l-1.4584045 -1.4584198l0.39775085 -1.5909882l2.0550232 2.0550385l0.9943695 -0.9943695l0.773407 0.7733917l-0.9943695 0.9943695l3.4250488 3.4250488q0.43089294 0.43089294 0.59661865 0.50823975q0.17677307 0.06628418 0.37565613 0.022094727q0.18782043 -0.055252075 0.40878296 -0.2762146q0.16574097 -0.16572571 0.3867035 -0.4750824zm1.8727264 -0.08287048l-8.098572 -8.098587l0.99435425 -0.9943695l2.905777 2.905777q-0.11048889 -1.5026093 0.9501648 -2.563263q0.6518707 -0.6518707 1.381073 -0.87283325q0.74024963 -0.23202515 1.3921204 0.022094727q0.6629181 0.24305725 1.524704 1.1048584l3.7233582 3.7233582l-0.9943695 0.9943695l-3.7233582 -3.7233734q-0.7402649 -0.74024963 -1.4031677 -0.76234436q-0.6629181 -0.022094727 -1.2595367 0.5745239q-0.4419403 0.4419403 -0.59661865 1.060669q-0.15467834 0.6187134 0.07733154 1.18219q0.22097778 0.5524292 0.9059906 1.237442l3.2151184 3.2151184l-0.9943695 0.9943695zm6.5462646 -6.5462646l-1.1380005 -1.1380005l1.1380005 -1.1380005l1.1380005 1.1380005q0.62976074 0.629776 0.78445435 1.2263947q0.16572571 0.607666 -0.11048889 1.3037262l-0.6960602 -0.14363098q0.17677307 -0.46403503 0.055236816 -0.87283325q-0.11048889 -0.41984558 -0.607666 -0.9391327l-0.56347656 0.56347656zm6.032501 -6.032501l-8.098572 -8.098587l0.9943695 -0.9943695l2.9057617 2.905777q-0.11048889 -1.5026093 0.95018005 -2.563263q0.65185547 -0.6518707 1.3810577 -0.87283325q0.74024963 -0.23202515 1.3921204 0.022094727q0.6629181 0.24305725 1.524704 1.1048431l3.7233582 3.7233734l-0.9943695 0.9943695l-3.7233582 -3.7233734q-0.7402649 -0.74024963 -1.4031677 -0.76234436q-0.6629181 -0.022094727 -1.2595367 0.5745239q-0.4419403 0.4419403 -0.59661865 1.060669q-0.15467834 0.6187134 0.07733154 1.18219q0.22097778 0.5524292 0.9059906 1.2374268l3.2151184 3.2151337l-0.9943695 0.9943695zm8.413467 -12.192062l1.1490479 -0.9059906q0.6629181 1.1490479 0.49719238 2.309143q-0.15467834 1.1490479 -1.1711426 2.1655273q-1.2926941 1.2926788 -2.8394775 1.2484741q-1.5467987 -0.044189453 -2.9720612 -1.4694519q-1.4805145 -1.4804993 -1.5357513 -3.06044q-0.055236816 -1.5799408 1.1600952 -2.795288q1.1711426 -1.1711426 2.7179413 -1.1048584q1.5467987 0.044204712 2.994156 1.4915619q0.088394165 0.088378906 0.26516724 0.26516724l-4.375229 4.3752136q1.0275269 0.91703796 2.0329437 0.95018005q1.0054169 0.011047363 1.7346191 -0.7181549q0.5524292 -0.5524292 0.65185547 -1.2263947q0.09944153 -0.6739502 -0.3093567 -1.5246887zm-4.872406 1.646225l3.2703705 -3.2703705q-0.8065491 -0.6739502 -1.4804993 -0.7292023q-1.0496216 -0.09944153 -1.8009186 0.6518707q-0.6850128 0.68499756 -0.6960602 1.6241302q-0.011047363 0.9170227 0.70710754 1.7235718zm2.0826569 -8.999039l-1.1380005 -1.1380005l0.9943695 -0.9943695l1.1380005 1.1380005l-0.9943695 0.9943695zm6.9605713 6.9605865l-5.8667755 -5.8667755l0.9943695 -0.9943695l5.8667755 5.8667755l-0.9943695 0.9943695zm2.8118591 -1.8395844l1.1159058 -0.8286438q0.5082245 0.39775085 0.98332214 0.32040405q0.65185547 -0.09942627 1.2926788 -0.74024963q0.6850128 -0.6850128 0.7844391 -1.3368683q0.09944153 -0.6518707 -0.26516724 -1.2816315q-0.22096252 -0.37565613 -1.2042847 -1.3589783q0.121536255 1.4252625 -0.8507385 2.3975372q-1.215332 1.2153473 -2.7510834 1.0054169q-1.5357513 -0.20991516 -2.762146 -1.4363098q-0.8396759 -0.83969116 -1.2484741 -1.845108q-0.39775085 -1.0164642 -0.20993042 -1.9776917q0.19888306 -0.9722595 0.9722748 -1.7456665q1.038559 -1.038559 2.5522156 -0.87283325l-0.70710754 -0.70710754l0.9170227 -0.9170227l5.071289 5.071274q1.3700104 1.3700256 1.668335 2.2207642q0.29830933 0.8507385 0.022094727 1.789856q-0.2762146 0.9391327 -1.1600952 1.8230133q-1.0496216 1.0496063 -2.1765747 1.2263947q-1.1158905 0.16572571 -2.0439758 -0.8065491zm-2.6958466 -4.353119q1.1490479 1.1490479 2.13237 1.2263794q0.9943695 0.06629944 1.6793823 -0.6187134q0.6850128 -0.6850128 0.62976074 -1.668335q-0.06628418 -0.9943695 -1.1932373 -2.1213226q-1.0827637 -1.0827484 -2.099228 -1.1490479q-1.0275116 -0.07733154 -1.701477 0.59661865q-0.66290283 0.6629181 -0.5855713 1.668335q0.0773468 1.0054169 1.1380005 2.0660858zm8.689682 -2.6129913l-8.098587 -8.098579l0.9943695 -0.9943695l2.905777 2.9057693q-0.11048889 -1.5026016 0.9501648 -2.563263q0.6518707 -0.6518631 1.381073 -0.87283325q0.74024963 -0.23202515 1.3921204 0.022094727q0.66290283 0.24306488 1.5246887 1.1048508l3.7233582 3.7233658l-0.9943695 0.9943695l-3.7233582 -3.7233658q-0.74024963 -0.74024963 -1.4031525 -0.76234436q-0.6629181 -0.022102356 -1.2595367 0.5745239q-0.4419403 0.4419403 -0.59661865 1.0606613q-0.15467834 0.6187134 0.07733154 1.18219q0.22097778 0.5524292 0.90597534 1.237442l3.2151337 3.2151184l-0.9943695 0.9943695zm7.562729 -9.352592l1.0275116 0.74025726q-0.33145142 0.5082321 -0.66290283 0.83969116q-0.54138184 0.5413742 -1.0054321 0.6739578q-0.4750824 0.121536255 -0.87283325 -0.03314209q-0.40878296 -0.16573334 -1.3037262 -1.0606613l-3.3697968 -3.3698044l-0.7292023 0.7292023l-0.773407 -0.77339935l0.7292023 -0.7292023l-1.4584045 -1.4584122l0.39775085 -1.5909882l2.0550232 2.0550308l0.9943695 -0.9943695l0.773407 0.77339935l-0.9943695 0.9943695l3.4250488 3.4250488q0.43089294 0.43089294 0.59661865 0.5082321q0.17677307 0.06629181 0.37564087 0.022094727q0.1878357 -0.055244446 0.40879822 -0.2762146q0.16572571 -0.16572571 0.3867035 -0.47509003z" fill-rule="nonzero"></path><path fill="#000000" d="m189.9504 126.582375q-0.5303192 -1.4363098 -0.87283325 -2.1544647q-0.33145142 -0.70710754 -0.8617859 -1.5467987q-0.5303345 -0.8617859 -1.0606537 -1.5467987q-0.54138184 -0.69605255 -1.1932526 -1.3479233q-1.3147736 -1.3147736 -2.773178 -2.1986542q-1.4473572 -0.8949356 -3.8780365 -1.8230133l1.0496063 -1.049614q2.0329285 0.35355377 3.8227997 1.237442q1.789856 0.8617859 3.1598816 2.231804q1.1490479 1.1490479 2.1102753 2.8394775q1.071701 1.8892975 1.5688934 4.2868347l-1.0717163 1.0717087z" fill-rule="nonzero"></path><path fill="#000000" d="m120.93133 218.02998l1.5357437 -2.0881653q0.6518707 0.40878296 1.2816315 0.33145142q0.6297684 -0.0773468 1.2705841 -0.7181549q0.6960602 -0.6960602 0.7844467 -1.3147736q0.06629181 -0.41984558 -0.23201752 -0.7181549q-0.20992279 -0.20993042 -0.47509003 -0.20993042q-0.2651596 0 -0.8507385 0.36460876q-2.6737442 1.701477 -3.6570663 1.8892975q-1.3589706 0.25411987 -2.3422928 -0.7292023q-0.894928 -0.894928 -0.7954941 -2.1876068q0.09944153 -1.3147888 1.5688934 -2.7842407q1.4031677 -1.4031677 2.5522156 -1.6241302q1.1380005 -0.23202515 2.2870483 0.40879822l-1.3921204 2.0108337q-0.5082321 -0.28726196 -1.0275116 -0.1878357q-0.5082321 0.088394165 -1.082756 0.6629181q-0.70710754 0.70710754 -0.81759644 1.215332q-0.06628418 0.3535614 0.15468597 0.5745239q0.18782043 0.1878357 0.5082321 0.1546936q0.41984558 -0.06629944 2.1986618 -1.1822052q1.7677612 -1.1269531 2.8284225 -1.215332q1.0385666 -0.088394165 1.9003525 0.7733917q0.95018005 0.95018005 0.83969116 2.4085846q-0.11048889 1.4584045 -1.6462402 2.994156q-1.4031601 1.4031677 -2.784233 1.6572876q-1.3810654 0.23200989 -2.6074524 -0.48614502zm6.530197 -12.120758l-1.9445419 1.3479309q-0.70710754 -1.2816315 -0.5082321 -2.4306793q0.1988678 -1.1490631 1.5357437 -2.4859314q1.2042923 -1.2042847 2.0881805 -1.5136414q0.8838806 -0.30937195 1.5578461 -0.09944153q0.68499756 0.1988678 1.8561554 1.3700104l2.11026 2.13237q0.89494324 0.89494324 1.4031677 1.2484894q0.5192871 0.34249878 1.2484894 0.5855713l-1.7898712 1.7898712q-0.2541046 -0.09944153 -0.70710754 -0.3535614q-0.20991516 -0.121536255 -0.28726196 -0.15467834q-0.011047363 0.91703796 -0.3093567 1.6793823q-0.29830933 0.74024963 -0.90597534 1.3479156q-1.0496063 1.0496216 -2.2318115 1.0827637q-1.18219 0.03314209 -2.0550232 -0.83969116q-0.5855713 -0.5855713 -0.762352 -1.3147736q-0.17677307 -0.7292023 0.088386536 -1.4584045q0.25411987 -0.7402649 1.0054169 -1.8672028q1.038559 -1.5026093 1.3147736 -2.1986694l-0.17677307 -0.17677307q-0.5303345 -0.5303345 -1.0054169 -0.49719238q-0.4750824 0.03315735 -1.1932373 0.75131226q-0.4861374 0.48612976 -0.56347656 0.96121216q-0.07733917 0.45300293 0.23201752 1.093811zm3.8890915 -0.95018005q-0.23202515 0.45300293 -0.8286438 1.381073q-0.59661865 0.90597534 -0.67396545 1.2926788q-0.09944153 0.607666 0.28726196 0.9943695q0.37565613 0.37565613 0.95018005 0.37565613q0.56347656 -0.011047363 0.9943695 -0.4419403q0.49717712 -0.49719238 0.607666 -1.2705841q0.088394165 -0.5745239 -0.16572571 -1.0275116q-0.16572571 -0.29832458 -0.81759644 -0.95018005l-0.35354614 -0.3535614zm-0.7839508 -6.331314l1.0054169 -1.0054169l-0.51927185 -0.5192871q-0.8617859 -0.8617859 -1.1048584 -1.4584045q-0.24307251 -0.6187134 -0.022094727 -1.3700256q0.23202515 -0.76234436 0.9943695 -1.5246887q0.7733917 -0.773407 1.7456665 -1.2816315l1.0054169 1.5136414q-0.5303345 0.33146667 -0.92807007 0.7292023q-0.3867035 0.3867035 -0.37565613 0.75131226q0.011047363 0.34249878 0.5303345 0.8617859l0.48612976 0.48612976l1.3479309 -1.3479156l1.4252625 1.4252625l-1.3479309 1.3479156l5.413788 5.413788l-1.811966 1.811966l-5.413788 -5.413788l-1.0054169 1.0054169l-1.4252625 -1.4252625zm13.8063965 -4.481415l2.0992126 -1.5026093q0.6518707 1.3368835 0.41984558 2.6074677q-0.23200989 1.2705841 -1.358963 2.397522q-1.7788239 1.7788239 -3.8117523 1.4694672q-1.6020355 -0.25411987 -3.027298 -1.6793823q-1.701477 -1.701477 -1.7788239 -3.546585q-0.06628418 -1.8561554 1.2926788 -3.2151184q1.524704 -1.524704 3.4140015 -1.4031677q1.8893127 0.121536255 3.9332886 2.2539062l-4.529907 4.529892q0.8286438 0.78445435 1.6904297 0.8286438q0.8617859 0.022094727 1.4915466 -0.607666q0.41984558 -0.41984558 0.47509766 -0.9391327q0.06628418 -0.5303192 -0.3093567 -1.1932373zm-1.7235718 -1.9445496q-0.8065491 -0.76234436 -1.6020508 -0.7844391q-0.79548645 -0.022094727 -1.3479156 0.5303345q-0.59661865 0.59661865 -0.5524292 1.4141998q0.044189453 0.81759644 0.7955017 1.5467987l2.706894 -2.706894zm10.217438 -2.1961975l-1.4142151 -1.4142151l-0.37565613 -5.5021667q-0.088378906 -1.3479309 -0.09942627 -1.9555969q-0.28726196 0.33145142 -0.7955017 0.8617859l-2.3975372 2.419632l-1.502594 -1.5026093l5.6457977 -5.6457977l1.2816315 1.2816315l0.40879822 5.623703l0.06629944 1.9224548q0.7181549 -0.8065491 0.894928 -0.98332214l2.8063354 -2.8063354l1.5909882 1.5909882l-6.109848 6.109848zm3.3919067 -10.418777q-0.9059906 -0.90597534 -1.3037262 -2.1876068q-0.40879822 -1.2926788 -0.03315735 -2.5522156q0.37565613 -1.2595367 1.381073 -2.2649536q1.5467987 -1.5467987 3.546585 -1.5357513q1.9997864 0.011047363 3.546585 1.5578461q1.5467834 1.5467987 1.5688934 3.5797272q0.011047363 2.0218964 -1.5026093 3.5355377q-0.93911743 0.9391327 -2.220749 1.381073q-1.2816315 0.41984558 -2.5411682 0.044189453q-1.2705841 -0.3867035 -2.4417267 -1.5578461zm1.9445343 -1.7677612q1.0275116 1.0275116 2.043991 1.0937958q1.0164642 0.044204712 1.7235718 -0.66290283q0.70710754 -0.70710754 0.65185547 -1.7125244q-0.055236816 -1.0275116 -1.0937958 -2.0660858q-1.0054169 -1.0054169 -2.0329437 -1.0606537q-1.0164642 -0.06629944 -1.7235718 0.6408081q-0.70710754 0.70710754 -0.65185547 1.7346344q0.06628418 1.0164642 1.0827484 2.0329285zm16.267242 -9.417145l-1.8119507 1.8119507l-3.4913483 -3.491333q-1.1048584 -1.1048584 -1.5467987 -1.3037262q-0.4419403 -0.22097778 -0.8838806 -0.13258362q-0.4419403 0.06628418 -0.8065338 0.43089294q-0.47509766 0.4750824 -0.58558655 1.1159058q-0.121520996 0.62976074 0.16574097 1.2042847q0.28726196 0.5524292 1.4363098 1.701477l3.0935822 3.0935974l-1.8009033 1.8009033l-6.8390503 -6.8390503l1.6793823 -1.6793671l1.0054169 1.0054169q-0.26516724 -2.0550385 1.0937958 -3.4140015q0.59661865 -0.59661865 1.3147736 -0.87283325q0.70710754 -0.28726196 1.3037415 -0.19888306q0.5855713 0.0773468 1.1158905 0.40879822q0.5192871 0.32040405 1.3037415 1.1048584l4.2536774 4.2536926zm3.6166534 -7.9697876l2.099228 -1.502594q0.6518707 1.3368683 0.41984558 2.6074524q-0.23202515 1.2705841 -1.358963 2.3975372q-1.7788239 1.7788086 -3.8117523 1.4694519q-1.6020355 -0.25411987 -3.027298 -1.6793823q-1.701477 -1.701477 -1.7788239 -3.546585q-0.06628418 -1.8561554 1.2926788 -3.2151184q1.524704 -1.524704 3.4140015 -1.4031677q1.8892975 0.121536255 3.9332886 2.2539062l-4.529907 4.529907q0.8286438 0.7844391 1.6904297 0.82862854q0.8617859 0.022094727 1.4915466 -0.607666q0.41984558 -0.41984558 0.47509766 -0.9391327q0.06628418 -0.5303192 -0.30937195 -1.1932373zm-1.7235718 -1.9445343q-0.8065338 -0.7623596 -1.6020355 -0.78445435q-0.79548645 -0.022094727 -1.3479156 0.5303345q-0.59661865 0.59661865 -0.5524292 1.4142151q0.044189453 0.8175812 0.79548645 1.5467834l2.706894 -2.7068787z" fill-rule="nonzero"></path><path fill="#000000" fill-opacity="0.0" d="m316.25723 60.131233l0 234.58267l-32.472443 0l0 -234.58267z" fill-rule="evenodd"></path><path fill="#000000" d="m293.17722 140.42888l0 -2.015625l7.578125 0q-1.03125 -1.09375 -1.53125 -2.59375l1.828125 0q0.265625 0.796875 0.984375 1.71875q0.71875 0.921875 1.671875 1.265625l0 1.625l-10.53125 0zm10.53125 6.401108q0 1.53125 -1.078125 2.390625q-1.296875 1.015625 -4.28125 1.015625q-2.96875 0 -4.28125 -1.03125q-1.0625 -0.84375 -1.0625 -2.375q0 -1.53125 1.171875 -2.46875q1.171875 -0.9375 4.203125 -0.9375q2.953125 0 4.25 1.03125q1.078125 0.859375 1.078125 2.375zm-1.671875 0q0 -0.359375 -0.234375 -0.65625q-0.21875 -0.28125 -0.828125 -0.4375q-0.78125 -0.203125 -2.625 -0.203125q-1.84375 0 -2.53125 0.1875q-0.6875 0.1875 -0.921875 0.46875q-0.234375 0.28125 -0.234375 0.640625q0 0.375 0.234375 0.65625q0.234375 0.28125 0.84375 0.4375q0.765625 0.21875 2.609375 0.21875q1.84375 0 2.53125 -0.1875q0.703125 -0.1875 0.921875 -0.46875q0.234375 -0.28125 0.234375 -0.65625zm1.671875 8.151108q0 1.53125 -1.078125 2.390625q-1.296875 1.015625 -4.28125 1.015625q-2.96875 0 -4.28125 -1.03125q-1.0625 -0.84375 -1.0625 -2.375q0 -1.53125 1.171875 -2.46875q1.171875 -0.9375 4.203125 -0.9375q2.953125 0 4.25 1.03125q1.078125 0.859375 1.078125 2.375zm-1.671875 0q0 -0.359375 -0.234375 -0.65625q-0.21875 -0.28125 -0.828125 -0.4375q-0.78125 -0.203125 -2.625 -0.203125q-1.84375 0 -2.53125 0.1875q-0.6875 0.1875 -0.921875 0.46875q-0.234375 0.28125 -0.234375 0.640625q0 0.375 0.234375 0.65625q0.234375 0.28125 0.84375 0.4375q0.765625 0.21875 2.609375 0.21875q1.84375 0 2.53125 -0.1875q0.703125 -0.1875 0.921875 -0.46875q0.234375 -0.28125 0.234375 -0.65625zm-0.953125 4.776108q1.40625 0 2.078125 0.609375q0.6875 0.625 0.6875 1.6875q0 1.09375 -0.6875 1.703125q-0.671875 0.625 -2.078125 0.625q-1.421875 0 -2.109375 -0.625q-0.671875 -0.609375 -0.671875 -1.671875q0 -1.09375 0.671875 -1.71875q0.6875 -0.609375 2.109375 -0.609375zm0.015625 1.5625q-1.03125 0 -1.375 0.234375q-0.265625 0.1875 -0.265625 0.5q0 0.3125 0.265625 0.5q0.34375 0.234375 1.375 0.234375q1.015625 0 1.359375 -0.234375q0.265625 -0.1875 0.265625 -0.5q0 -0.3125 -0.265625 -0.5q-0.34375 -0.234375 -1.359375 -0.234375zm-8.328125 2.265625l0 -1.484375l11.078125 5.578125l0 1.453125l-11.078125 -5.546875zm2.765625 3.25q1.40625 0 2.078125 0.609375q0.6875 0.625 0.6875 1.703125q0 1.078125 -0.6875 1.6875q-0.671875 0.625 -2.078125 0.625q-1.421875 0 -2.109375 -0.625q-0.671875 -0.609375 -0.671875 -1.671875q0 -1.09375 0.671875 -1.71875q0.6875 -0.609375 2.109375 -0.609375zm0 1.5625q-1.015625 0 -1.359375 0.234375q-0.265625 0.1875 -0.265625 0.5q0 0.3125 0.25 0.484375q0.359375 0.234375 1.375 0.234375q1.03125 0 1.375 -0.21875q0.265625 -0.1875 0.265625 -0.5q0 -0.328125 -0.265625 -0.5q-0.34375 -0.234375 -1.375 -0.234375zm8.125 10.884979l-3.84375 0q1.125 0.96875 1.125 2.3125q0 0.703125 -0.265625 1.25q-0.25 0.5625 -0.65625 0.84375q-0.390625 0.28125 -0.875 0.390625q-0.484375 0.109375 -1.515625 0.109375l-4.453125 0l0 -2.015625l4.015625 0q1.1875 0 1.515625 -0.125q0.328125 -0.109375 0.515625 -0.40625q0.1875 -0.28125 0.1875 -0.71875q0 -0.5 -0.25 -0.890625q-0.234375 -0.390625 -0.734375 -0.578125q-0.484375 -0.171875 -1.4375 -0.171875l-3.8125 0l0 -2.015625l10.484375 0l0 2.015625zm-8.0625 11.343246l-0.34375 2.0q-1.09375 -0.375 -1.671875 -1.21875q-0.578125 -0.828125 -0.578125 -2.078125q0 -1.984375 1.296875 -2.9375q1.03125 -0.75 2.625 -0.75q1.875 0 2.9375 0.984375q1.078125 0.984375 1.078125 2.5q0 1.6875 -1.125 2.671875q-1.109375 0.984375 -3.421875 0.9375l0 -5.03125q-0.890625 0.015625 -1.390625 0.484375q-0.5 0.46875 -0.5 1.15625q0 0.46875 0.25 0.78125q0.265625 0.328125 0.84375 0.5zm2.03125 0.109375q0.875 -0.015625 1.328125 -0.453125q0.453125 -0.421875 0.453125 -1.03125q0 -0.671875 -0.484375 -1.09375q-0.46875 -0.421875 -1.296875 -0.421875l0 3.0zm4.171875 3.6354828l1.859375 0l0 2.015625l-1.859375 0l0 -2.015625zm-8.625 0l7.59375 0l0 2.015625l-7.59375 0l0 -2.015625zm-0.5 3.8844757l-0.28125 2.296875q-0.40625 0.0625 -0.546875 0.265625q-0.21875 0.296875 -0.21875 0.90625q0 0.78125 0.234375 1.1875q0.15625 0.265625 0.515625 0.390625q0.25 0.09375 0.921875 0.09375l1.109375 0q-1.234375 -0.890625 -1.234375 -2.265625q0 -1.53125 1.296875 -2.4375q1.015625 -0.703125 2.546875 -0.703125q1.90625 0 2.90625 0.921875q1.015625 0.921875 1.015625 2.296875q0 1.40625 -1.234375 2.328125l1.0625 0l0 1.875l-6.8125 0q-1.34375 0 -2.0 -0.21875q-0.671875 -0.21875 -1.046875 -0.625q-0.390625 -0.40625 -0.59375 -1.078125q-0.21875 -0.65625 -0.21875 -1.6875q0 -1.9375 0.65625 -2.75q0.65625 -0.796875 1.671875 -0.796875q0.109375 0 0.25 0zm4.453125 1.796875q-1.203125 0 -1.765625 0.46875q-0.5625 0.46875 -0.5625 1.15625q0 0.75 0.578125 1.25q0.578125 0.515625 1.703125 0.515625q1.1875 0 1.75 -0.5q0.578125 -0.484375 0.578125 -1.21875q0 -0.734375 -0.5625 -1.203125q-0.5625 -0.46875 -1.71875 -0.46875zm6.53125 9.358871l-3.84375 0q1.125 0.96875 1.125 2.3125q0 0.703125 -0.265625 1.25q-0.25 0.5625 -0.65625 0.84375q-0.390625 0.28125 -0.875 0.390625q-0.484375 0.109375 -1.515625 0.109375l-4.453125 0l0 -2.015625l4.015625 0q1.1875 0 1.515625 -0.125q0.328125 -0.109375 0.515625 -0.40625q0.1875 -0.28125 0.1875 -0.71875q0 -0.5 -0.25 -0.890625q-0.234375 -0.390625 -0.734375 -0.578125q-0.484375 -0.171875 -1.4375 -0.171875l-3.8125 0l0 -2.015625l10.484375 0l0 2.015625zm-2.890625 10.421371l-1.59375 0l0 -1.375l-3.0625 0q-0.9375 0 -1.09375 0.03125q-0.140625 0.046875 -0.25 0.1875q-0.09375 0.140625 -0.09375 0.34375q0 0.28125 0.1875 0.8125l-1.5625 0.171875q-0.296875 -0.703125 -0.296875 -1.59375q0 -0.546875 0.171875 -0.984375q0.1875 -0.421875 0.46875 -0.640625q0.296875 -0.203125 0.796875 -0.28125q0.359375 -0.0625 1.421875 -0.0625l3.3125 0l0 -0.921875l1.59375 0l0 0.921875l1.515625 0l1.171875 2.015625l-2.6875 0l0 1.375z" fill-rule="nonzero"></path><path fill="#000000" fill-opacity="0.0" d="m282.54068 59.755905l0.72442627 235.33858" fill-rule="evenodd"></path><path stroke="#000000" stroke-width="1.0" stroke-linejoin="round" stroke-linecap="butt" d="m282.5512 63.182972l0.7033386 228.48445" fill-rule="evenodd"></path><path fill="#000000" stroke="#000000" stroke-width="1.0" stroke-linecap="butt" d="m282.55124 63.182976l1.1280212 1.1211166l-1.1340637 -3.0862923l-1.1150818 3.0932121z" fill-rule="evenodd"></path><path fill="#000000" stroke="#000000" stroke-width="1.0" stroke-linecap="butt" d="m283.25455 291.66742l-1.1280518 -1.1211243l1.1340942 3.0863037l1.1150818 -3.0932312z" fill-rule="evenodd"></path></g></svg>

