<svg viewBox="0 0 340 340" fill="none" stroke-linecap="square" stroke-miterlimit="10" xmlns="http://www.w3.org/2000/svg">
  <clipPath id="a">
    <path d="M0 0h960v720H0V0z"/>
  </clipPath>
  <g clip-path="url(#a)">
    <path fill="none" d="M0 0h960v720H0z"/>
    <path fill="#fff2cc" d="M23.6 59.75h234.6V295.1H23.6z" fill-rule="evenodd"/>
    <path stroke="#000" stroke-linejoin="round" stroke-linecap="butt" d="M23.6 59.75h234.6V295.1H23.6z"/>
    <path fill="none" d="M23.6 36.89l233.86.72"/>
    <path stroke="#000" stroke-linejoin="round" stroke-linecap="butt" d="M27.03 36.9l227 .7"/>
    <path fill="#000" stroke="#000" stroke-linecap="butt" d="M27.03 36.9l1.13-1.12-3.1 1.11 3.1 1.14z" fill-rule="evenodd"/>
    <path fill="#000" stroke="#000" stroke-linecap="butt" d="M254.04 37.6l-1.13 1.12 3.1-1.11-3.1-1.14z" fill-rule="evenodd"/>
    <path fill="none" d="M23.62 8.12H258.2v32.47H23.62z"/>
    <path fill="#000" d="M106.77 31.2h-2.02v-7.58q-1.1 1.03-2.6 1.53v-1.83q.8-.27 1.73-.98.92-.72 1.26-1.68h1.63V31.2zm6.4-10.54q1.53 0 2.39 1.08 1.01 1.3 1.01 4.28 0 2.97-1.03 4.28-.84 1.07-2.37 1.07-1.53 0-2.47-1.17-.94-1.18-.94-4.2 0-2.96 1.03-4.26.86-1.08 2.38-1.08zm0 1.68q-.36 0-.66.23-.28.22-.44.83-.2.78-.2 2.62 0 1.85.19 2.53.19.7.47.93.28.23.64.23.37 0 .65-.23.28-.24.44-.85.22-.76.22-2.6 0-1.85-.19-2.54-.19-.7-.47-.92-.28-.23-.65-.23zm8.15-1.68q1.53 0 2.39 1.08 1.01 1.3 1.01 4.28 0 2.97-1.03 4.28-.84 1.07-2.37 1.07-1.53 0-2.47-1.17-.94-1.18-.94-4.2 0-2.96 1.03-4.26.86-1.08 2.38-1.08zm0 1.68q-.36 0-.66.23-.28.22-.44.83-.2.78-.2 2.62 0 1.85.19 2.53.19.7.47.93.28.23.64.23.37 0 .65-.23.29-.24.44-.85.22-.76.22-2.6 0-1.85-.19-2.54-.18-.7-.47-.92-.28-.23-.65-.23zm4.77.95q0-1.4.61-2.08.63-.69 1.7-.69 1.09 0 1.7.7.62.66.62 2.07 0 1.42-.63 2.1-.6.68-1.67.68-1.1 0-1.72-.67-.6-.69-.6-2.11zm1.57-.02q0 1.03.23 1.38.19.26.5.26t.5-.26q.24-.35.24-1.38 0-1.01-.24-1.36-.19-.26-.5-.26t-.5.26q-.23.35-.23 1.36zm2.26 8.33h-1.48l5.58-11.08h1.45l-5.55 11.08zm3.25-2.76q0-1.41.61-2.08.63-.69 1.7-.69 1.08 0 1.7.69.62.67.62 2.08 0 1.42-.63 2.1-.6.68-1.67.68-1.1 0-1.72-.67-.6-.7-.6-2.11zm1.57 0q0 1.01.23 1.36.19.26.5.26t.48-.25q.24-.36.24-1.37 0-1.04-.22-1.38-.19-.26-.5-.26-.33 0-.5.26-.23.34-.23 1.38zm10.29 2.36l-2.41-7.6h1.95l1.43 4.97 1.3-4.97h1.95l1.26 4.97 1.45-4.97h1.99l-2.44 7.6h-1.94l-1.3-4.9-1.29 4.9h-1.95zm9.97-8.63v-1.86h2.02v1.86H155zm0 8.63v-7.6h2.02v7.6H155zm11.05 0h-1.86v-1.11q-.47.64-1.11.96-.63.32-1.27.32-1.31 0-2.25-1.05-.94-1.06-.94-2.95 0-1.94.91-2.94.92-1 2.31-1 1.27 0 2.2 1.05V20.7h2V31.2zm-5.36-3.97q0 1.22.32 1.76.5.78 1.36.78.7 0 1.2-.57.48-.6.48-1.77 0-1.31-.47-1.9-.47-.57-1.2-.57t-1.21.58q-.48.56-.48 1.69zm10.82-3.63v1.6h-1.37v3.06q0 .94.03 1.1.05.13.19.24.14.1.34.1.28 0 .81-.2l.18 1.57q-.7.3-1.6.3-.55 0-.98-.17-.42-.2-.64-.47-.2-.3-.28-.8-.07-.36-.07-1.42V25.2h-.92v-1.6h.92V22.1l2.02-1.18v2.7h1.37zm3.42-2.89v3.84q.96-1.12 2.3-1.12.71 0 1.26.27.56.25.84.65.28.4.4.88.1.48.1 1.51v4.46h-2.01v-4.02q0-1.19-.13-1.52-.1-.32-.4-.51-.29-.19-.72-.19-.5 0-.9.25-.39.24-.57.74-.17.48-.17 1.43v3.82h-2.02V20.7h2.02z"/>
    <path fill="#b6d7a8" d="M47.21 178.53c0-53.37 42.45-96.64 94.8-96.64a93.9 93.9 0 0 1 67.04 28.3 97.6 97.6 0 0 1 27.77 68.34c0 53.38-42.45 96.65-94.8 96.65-52.36 0-94.8-43.27-94.8-96.65z" fill-rule="evenodd"/>
    <path stroke="#000" stroke-linejoin="round" stroke-linecap="butt" d="M47.21 178.53c0-53.37 42.45-96.64 94.8-96.64a93.9 93.9 0 0 1 67.04 28.3 97.6 97.6 0 0 1 27.77 68.34c0 53.38-42.45 96.65-94.8 96.65-52.36 0-94.8-43.27-94.8-96.65z"/>
    <path fill="none" d="M74.98 246.87l134.08-136.7"/>
    <path stroke="#000" stroke-linejoin="round" stroke-linecap="butt" d="M77.38 244.43l129.28-131.8"/>
    <path fill="#000" stroke="#000" stroke-linecap="butt" d="M77.38 244.43l-.02-1.6-1.36 3 2.97-1.42z" fill-rule="evenodd"/>
    <path fill="#000" stroke="#000" stroke-linecap="butt" d="M206.66 112.63l.01 1.59 1.36-3-2.96 1.42z" fill-rule="evenodd"/>
    <path fill="none" d="M50.53 223.16L185.56 88.13l46.1 46.11L96.65 269.27z"/>
    <path fill="#000" d="M85.26 226.61l-1.34.39-5.3-13.7 1.25-.52 5.39 13.83zm-.75-4.09l-2.72-3.11 2.9-2.9 1.18 1.19-1.76 1.75.23.45q-.06-.13.39-.58.68-.69 1.48-.7.9 0 1.74.85 1.02 1.02 1.01 2.11.01.9-.74 1.65-.68.69-1.5.7-.86-.01-2.13-1.1l1.29-1.3q.73.62 1 .6.06.02.21-.14.15-.14.14-.3 0-.35-.47-.82-.52-.52-.77-.51-.15-.01-.3.14-.27.27-.1.94l-1.08 1.08zm-7.8-7.16l3 3 .47-.48 1.18 1.19-.48.47 1.05 1.05-1.29 1.3-1.05-1.06-1.78 1.78-.98-.98-1.3-5.1 1.18-1.17zm1.41 4.58l.29-.29-.5-.5.21.79z"/>
    <path fill="#000" d="M91.2 213.18l-1.81-1.81 1.8-1.8 1.81 1.8-1.8 1.8z"/>
    <path fill="#000" d="M102.4 209.35l-5.86-5.86.88-.89.82.82q-.15-.7.05-1.41.2-.73.78-1.32.65-.65 1.35-.8.68-.15 1.34.17-.34-1.72.78-2.84.87-.87 1.82-.85.95 0 1.96 1l4.03 4.04-.98.98-3.7-3.7q-.6-.6-.95-.75-.37-.17-.78-.07-.42.1-.76.43-.62.62-.62 1.44t.9 1.72l3.42 3.42-1 1-3.8-3.82q-.67-.66-1.24-.75-.58-.09-1.13.46-.42.42-.55 1-.13.57.13 1.17.27.57 1.06 1.37l3.05 3.05-1 1zm2.47-16.38l-1.14-1.14 1-1 1.14 1.14-1 1zm6.96 6.96l-5.87-5.87 1-1 5.87 5.87-1 1zm2.52-2.52l-5.87-5.86.9-.9.82.83q-.32-1.6.9-2.83.54-.53 1.17-.78.63-.26 1.16-.17.53.1 1.05.43.33.22 1.01.91l3.62 3.61-1 1-3.57-3.57q-.6-.6-1.02-.79-.42-.2-.9-.07-.46.1-.86.5-.64.65-.7 1.52-.05.85 1.08 1.98l3.2 3.2-1 1z"/>
    <path fill="#000" d="M125.66 190.87l-1.07 1.07q-2.12-.44-3.93-1.37-1.82-.94-3.12-2.23-1.59-1.6-2.47-3.56-.76-1.71-1.08-3.5l1.06-1.05q.92 2.43 1.8 3.89.9 1.46 2.2 2.77.91.9 2.03 1.7 1.13.76 2.28 1.34.76.36 2.3.94z"/>
    <path fill="#000" d="M125.49 186.27l-7.67-4.06 1.03-1.03 4.32 2.44 1.6.92-.9-1.52-2.5-4.36 1.02-1.03 4.28 2.53 1.41.82-.8-1.46-2.38-4.4.97-.97 4.04 7.7-1.04 1.04-4.44-2.58-1.24-.78 3.34 5.7-1.04 1.04zm.12-14.05l-1.13-1.13 1-1 1.13 1.14-1 1zm6.97 6.96l-5.87-5.86 1-1 5.86 5.87-1 1zm6.31-6.31l-.74-.74q.32 1.43-.76 2.5-.71.72-1.68.91-.97.2-2-.16-1.02-.38-1.91-1.27-.89-.89-1.3-1.88-.43-1.02-.22-1.98.2-.97.93-1.7.53-.53 1.16-.72.64-.2 1.26-.09l-2.9-2.9.99-1 8.1 8.1-.93.93zm-6.07.21q1.13 1.13 2.17 1.22 1.03.07 1.67-.57.65-.65.57-1.63-.08-1-1.17-2.1-1.2-1.2-2.23-1.3-1.03-.1-1.71.58-.67.66-.57 1.65.1.98 1.27 2.15zm9.83-5.76l1.03.74q-.33.5-.66.84-.55.54-1 .67-.48.12-.88-.03-.41-.17-1.3-1.06l-3.38-3.37-.72.73-.78-.78.73-.72-1.46-1.46.4-1.6 2.06 2.06.99-1 .77.78-1 1 3.43 3.42q.43.43.6.5.18.07.38.03.18-.06.4-.28.17-.16.4-.47zm1.87-.08l-8.1-8.1 1-1 2.9 2.9q-.1-1.5.96-2.55.65-.66 1.38-.88.74-.23 1.39.02.66.25 1.52 1.1l3.73 3.73-1 1-3.72-3.73q-.74-.74-1.4-.76-.67-.02-1.26.58-.45.44-.6 1.06-.15.62.08 1.18.22.55.9 1.24l3.22 3.21-1 1zm6.55-6.55l-1.14-1.14 1.14-1.14 1.14 1.14q.63.63.78 1.23.17.6-.1 1.3l-.7-.14q.17-.47.05-.88-.1-.41-.6-.93l-.57.56zm6.03-6.03l-8.1-8.1 1-1 2.9 2.91q-.1-1.5.95-2.56.66-.66 1.39-.88.74-.23 1.39.03.66.24 1.52 1.1l3.73 3.72-1 1-3.72-3.73q-.74-.74-1.4-.76-.67-.02-1.26.58-.45.44-.6 1.06-.16.62.08 1.18.22.55.9 1.24l3.22 3.21-1 1zm8.42-12.2l1.15-.9q.66 1.15.5 2.3-.16 1.16-1.18 2.17-1.3 1.3-2.84 1.25-1.54-.04-2.97-1.47-1.48-1.48-1.54-3.06-.05-1.58 1.16-2.8 1.18-1.16 2.72-1.1 1.55.05 3 1.5l.26.26-4.37 4.37q1.02.92 2.03.95 1 .01 1.73-.71.56-.56.66-1.23.1-.67-.31-1.53zm-4.88 1.65l3.27-3.27q-.8-.67-1.48-.73-1.05-.1-1.8.65-.68.69-.7 1.63 0 .91.71 1.72zm2.09-9l-1.14-1.14 1-1 1.13 1.15-1 1zm6.96 6.96l-5.87-5.86 1-1 5.86 5.87-1 1zm2.8-1.84l1.13-.83q.5.4.98.32.65-.1 1.3-.74.68-.68.78-1.33.1-.65-.27-1.28-.22-.38-1.2-1.36.12 1.42-.85 2.4-1.22 1.21-2.76 1-1.53-.21-2.76-1.44-.84-.84-1.25-1.84-.4-1.02-.2-1.98.2-.97.97-1.74 1.03-1.04 2.55-.88l-.7-.7.9-.92 5.08 5.07q1.37 1.37 1.67 2.22.3.85.02 1.79-.28.94-1.16 1.82-1.05 1.05-2.18 1.23-1.11.17-2.04-.8zm-2.69-4.35q1.15 1.15 2.14 1.23.99.06 1.68-.62.68-.69.62-1.67-.06-1-1.19-2.12-1.08-1.09-2.1-1.15-1.03-.08-1.7.6-.66.66-.58 1.66.07 1 1.13 2.07zm8.7-2.61l-8.1-8.1.99-1 2.9 2.91q-.1-1.5.95-2.56.66-.66 1.39-.88.74-.23 1.39.03.66.24 1.52 1.1l3.73 3.72-1 1-3.72-3.73q-.74-.74-1.4-.76-.67-.02-1.26.58-.45.44-.6 1.06-.16.62.08 1.18.22.55.9 1.24l3.22 3.21-1 1zm7.56-9.36l1.02.74q-.33.51-.66.84-.54.55-1 .68-.48.12-.88-.04t-1.3-1.06l-3.37-3.37-.73.73-.77-.77.73-.73-1.46-1.46.4-1.59 2.05 2.06 1-1 .77.78-1 .99 3.43 3.43q.43.43.6.5.17.07.37.03.19-.06.4-.28.17-.17.4-.48z"/>
    <path fill="#000" d="M189.95 126.58q-.53-1.43-.87-2.15-.33-.7-.86-1.55-.53-.86-1.06-1.55-.55-.7-1.2-1.34-1.31-1.32-2.77-2.2-1.45-.9-3.88-1.83l1.05-1.04q2.03.35 3.82 1.23 1.8.86 3.16 2.23 1.15 1.15 2.11 2.84 1.07 1.9 1.57 4.3l-1.07 1.06z"/>
    <path fill="#000" d="M120.93 218.03l1.54-2.09q.65.41 1.28.33.63-.07 1.27-.71.7-.7.78-1.32.07-.42-.23-.72-.2-.2-.47-.2-.27 0-.85.36-2.68 1.7-3.66 1.89-1.36.25-2.34-.73-.9-.9-.8-2.2.1-1.3 1.57-2.77 1.4-1.4 2.55-1.63 1.14-.23 2.29.41l-1.4 2.01q-.5-.29-1.02-.19-.5.1-1.08.67-.71.7-.82 1.21-.07.35.15.58.2.18.51.15.42-.07 2.2-1.18 1.77-1.13 2.83-1.22 1.04-.09 1.9.78.95.95.84 2.4-.11 1.46-1.65 3-1.4 1.4-2.78 1.66-1.38.23-2.6-.49zm6.53-12.12l-1.94 1.35q-.71-1.28-.51-2.43.2-1.15 1.53-2.49 1.2-1.2 2.1-1.51.88-.31 1.55-.1.69.2 1.86 1.37l2.1 2.13q.9.9 1.41 1.25.52.34 1.25.58l-1.8 1.8q-.25-.1-.7-.36-.2-.12-.29-.15 0 .91-.3 1.67-.3.75-.91 1.35-1.05 1.05-2.23 1.09-1.18.03-2.06-.84-.58-.59-.76-1.32-.18-.73.09-1.46.25-.74 1-1.86 1.04-1.5 1.32-2.2l-.18-.18q-.53-.53-1-.5-.48.04-1.2.75-.48.49-.56.97-.08.45.23 1.09zm3.9-.95q-.24.45-.84 1.38-.6.9-.67 1.3-.1.6.29.99.37.37.95.37.56 0 .99-.44.5-.5.6-1.27.1-.57-.16-1.03-.16-.3-.82-.95l-.35-.35zm-.8-6.33l1.01-1-.52-.53q-.86-.86-1.1-1.46-.25-.61-.02-1.37.23-.76.99-1.52.77-.77 1.75-1.28l1 1.51q-.53.33-.93.73-.38.39-.37.75 0 .34.53.86l.48.49 1.35-1.35 1.43 1.43-1.35 1.35 5.41 5.4-1.8 1.82-5.42-5.41-1 1-1.43-1.42zm13.81-4.48l2.1-1.5q.65 1.33.42 2.6-.23 1.27-1.36 2.4-1.78 1.78-3.8 1.47-1.61-.26-3.04-1.68-1.7-1.7-1.77-3.55-.07-1.85 1.29-3.21 1.52-1.53 3.41-1.4 1.9.12 3.94 2.25l-4.53 4.53q.82.78 1.69.83.86.02 1.49-.61.42-.42.47-.94.07-.53-.3-1.2zm-1.72-1.95q-.8-.76-1.6-.78-.8-.02-1.35.53-.6.6-.55 1.41.04.82.8 1.55l2.7-2.7zm10.22-2.2l-1.42-1.4-.37-5.51q-.1-1.35-.1-1.96-.29.34-.8.87l-2.4 2.42-1.5-1.5 5.65-5.65 1.28 1.28.4 5.62.07 1.92q.72-.8.9-.98l2.8-2.8 1.6 1.59-6.11 6.1zm3.39-10.41q-.9-.9-1.3-2.2-.41-1.28-.04-2.54.38-1.26 1.38-2.27 1.55-1.54 3.55-1.53 2 0 3.55 1.55 1.54 1.55 1.57 3.58 0 2.03-1.5 3.54-.95.94-2.23 1.38-1.28.42-2.54.04-1.27-.38-2.44-1.55zm1.94-1.77q1.03 1.03 2.05 1.1 1.01.04 1.72-.67.7-.7.65-1.71-.05-1.03-1.1-2.07-1-1-2.02-1.06-1.02-.07-1.73.64-.7.7-.65 1.74.07 1.01 1.08 2.03zm16.27-9.42l-1.81 1.81-3.5-3.49q-1.1-1.1-1.54-1.3-.44-.22-.88-.13-.45.06-.81.43-.47.47-.59 1.11-.12.63.17 1.2.29.56 1.44 1.7l3.09 3.1-1.8 1.8-6.84-6.84 1.68-1.68 1 1.01q-.26-2.05 1.1-3.41.6-.6 1.31-.88.71-.28 1.3-.2.6.08 1.12.41.52.32 1.3 1.1l4.26 4.26zm3.62-7.97l2.1-1.5q.65 1.34.42 2.6-.24 1.28-1.36 2.4-1.78 1.78-3.81 1.47-1.6-.25-3.03-1.68-1.7-1.7-1.78-3.54-.07-1.86 1.3-3.22 1.52-1.52 3.4-1.4 1.9.12 3.94 2.25l-4.53 4.53q.83.79 1.69.83.86.02 1.5-.6.41-.43.47-.94.06-.53-.31-1.2zm-1.73-1.94q-.8-.76-1.6-.79-.8-.02-1.35.53-.6.6-.55 1.42.05.82.8 1.54l2.7-2.7z"/>
    <path fill="none" d="M316.26 60.13v234.58h-32.48V60.13z"/>
    <path fill="#000" d="M293.18 140.43v-2.02h7.58q-1.04-1.09-1.54-2.59h1.83q.27.8.99 1.72.72.92 1.67 1.26v1.63h-10.53zm10.53 6.4q0 1.53-1.08 2.4-1.3 1-4.28 1-2.97 0-4.28-1.03-1.06-.84-1.06-2.37 0-1.53 1.17-2.47 1.17-.94 4.2-.94 2.95 0 4.25 1.03 1.08.86 1.08 2.38zm-1.67 0q0-.36-.24-.66-.22-.28-.83-.43-.78-.2-2.62-.2t-2.53.18q-.69.19-.92.47-.24.28-.24.64 0 .37.24.66.23.28.84.43.77.22 2.6.22 1.85 0 2.54-.19.7-.18.92-.46.24-.29.24-.66zm1.67 8.15q0 1.53-1.08 2.4-1.3 1-4.28 1-2.97 0-4.28-1.02-1.06-.85-1.06-2.38 0-1.53 1.17-2.47 1.17-.94 4.2-.94 2.95 0 4.25 1.04 1.08.86 1.08 2.37zm-1.67 0q0-.36-.24-.66-.22-.28-.83-.43-.78-.2-2.62-.2t-2.53.18q-.69.19-.92.47-.24.28-.24.64 0 .38.24.66.23.28.84.43.77.22 2.6.22 1.85 0 2.54-.18.7-.2.92-.47.24-.28.24-.66zm-.96 4.78q1.41 0 2.08.6.69.63.69 1.7 0 1.09-.69 1.7-.67.62-2.08.62-1.42 0-2.1-.62-.68-.61-.68-1.67 0-1.1.67-1.72.7-.61 2.11-.61zm.02 1.56q-1.03 0-1.38.23-.26.2-.26.5 0 .32.26.5.35.24 1.38.24 1.01 0 1.36-.24.26-.18.26-.5 0-.3-.26-.5-.35-.23-1.36-.23zm-8.33 2.27v-1.49l11.08 5.58v1.45l-11.08-5.54zm2.77 3.25q1.4 0 2.07.6.7.63.7 1.7 0 1.09-.7 1.7-.67.62-2.07.62-1.43 0-2.11-.62-.67-.61-.67-1.68 0-1.09.67-1.72.68-.6 2.1-.6zm0 1.56q-1.02 0-1.36.23-.27.19-.27.5t.25.49q.36.23 1.38.23 1.03 0 1.37-.22.27-.19.27-.5 0-.33-.27-.5-.34-.23-1.37-.23zm8.12 10.88h-3.84q1.12.97 1.12 2.32 0 .7-.26 1.25-.25.56-.66.84-.39.28-.87.39-.49.1-1.52.1h-4.45v-2h4.01q1.19 0 1.52-.13.33-.11.51-.4.2-.29.2-.73 0-.5-.26-.89-.23-.39-.73-.58-.49-.17-1.44-.17h-3.81v-2.01h10.48v2.01zm-8.06 11.35l-.34 2q-1.1-.38-1.68-1.22-.57-.83-.57-2.08 0-1.99 1.3-2.94 1.02-.75 2.62-.75 1.87 0 2.93.99 1.08.98 1.08 2.5 0 1.68-1.12 2.67-1.11.98-3.42.94v-5.04q-.9.02-1.4.49-.5.47-.5 1.15 0 .47.26.79.26.32.84.5zm2.03.1q.88-.01 1.33-.45.45-.42.45-1.03 0-.67-.48-1.1-.47-.41-1.3-.41v3zm4.17 3.64h1.86v2.02h-1.86v-2.02zm-8.62 0h7.6v2.02h-7.6v-2.02zm-.5 3.89l-.28 2.3q-.41.05-.55.26-.22.3-.22.9 0 .79.23 1.2.16.26.52.38.25.1.92.1h1.11q-1.23-.9-1.23-2.27 0-1.53 1.3-2.44 1.01-.7 2.54-.7 1.9 0 2.9.92 1.02.92 1.02 2.3 0 1.4-1.23 2.33h1.06v1.87h-6.81q-1.35 0-2-.22-.67-.22-1.05-.62-.39-.4-.6-1.08-.21-.66-.21-1.69 0-1.94.66-2.75.65-.8 1.67-.8h.25zm4.45 1.8q-1.2 0-1.77.46-.56.47-.56 1.16 0 .75.58 1.25.58.51 1.7.51 1.2 0 1.75-.5.58-.48.58-1.22 0-.73-.56-1.2t-1.72-.47zm6.53 9.35h-3.84q1.12.97 1.12 2.31 0 .7-.26 1.25-.25.57-.66.85-.39.28-.87.39-.49.1-1.52.1h-4.45v-2h4.01q1.19 0 1.52-.13.33-.11.51-.4.2-.3.2-.73 0-.5-.26-.89-.23-.39-.73-.58-.49-.17-1.44-.17h-3.81v-2.01h10.48v2.01zm-2.89 10.42h-1.6v-1.37h-3.06q-.93 0-1.09.03-.14.05-.25.19-.1.14-.1.34 0 .28.2.81l-1.57.17q-.3-.7-.3-1.59 0-.55.18-.98.18-.43.47-.64.3-.2.8-.29.35-.06 1.41-.06h3.32v-.92h1.6v.92h1.5l1.18 2.02h-2.69v1.37z"/>
    <path fill="none" d="M282.54 59.76l.73 235.33"/>
    <path stroke="#000" stroke-linejoin="round" stroke-linecap="butt" d="M282.55 63.18l.7 228.49"/>
    <path fill="#000" stroke="#000" stroke-linecap="butt" d="M282.55 63.18l1.13 1.12-1.13-3.08-1.12 3.1z" fill-rule="evenodd"/>
    <path fill="#000" stroke="#000" stroke-linecap="butt" d="M283.25 291.67l-1.12-1.12 1.13 3.08 1.12-3.1z" fill-rule="evenodd"/>
  </g>
</svg>
